<svg xmlns="http://www.w3.org/2000/svg" width="100" height="100" viewBox="0 0 100 100">
  <circle cx="50" cy="50" r="50" fill="#cc0038"/>
  <path fill="#fff" d="m35.3 71.29 3.19-7.73q5.11 3.58 10.06 3.58 7.6 0 7.6-5.31 0-2.49-1.8-4.75-1.79-2.26-7.4-5.04-5.57-2.83-7.53-4.62-1.93-1.83-3-4.32-1.02-2.49-1.02-5.5 0-5.65 4.12-9.37 4.15-3.72 10.62-3.72 8.43 0 12.39 3.15L59.9 35.1q-4.55-3.25-9.6-3.25-2.98 0-4.64 1.6-1.63 1.55-1.63 4.08 0 4.18 9.27 8.7 4.88 2.39 7.03 4.41 2.16 2 3.3 4.68 1.12 2.66 1.12 5.95 0 5.9-4.68 9.72-4.65 3.82-12.49 3.82-6.8 0-12.28-3.52"/>
</svg>
